<?xml version="1.0" encoding="UTF-8" standalone="no"?>
<!-- Created with Inkscape (http://www.inkscape.org/) -->

<svg
   width="130.34308mm"
   height="121.84397mm"
   viewBox="0 0 130.34308 121.84397"
   version="1.1"
   id="svg1"
   xmlns="http://www.w3.org/2000/svg"
   xmlns:svg="http://www.w3.org/2000/svg">
  <defs
     id="defs1" />
  <path
     id="path17"
     style="opacity:1;fill:#fff808;fill-opacity:1;stroke:#ff7f19;stroke-width:6;stroke-linecap:square;stroke-linejoin:miter;stroke-dasharray:none;stroke-opacity:0.99582;paint-order:stroke fill markers"
     d="m 77.133581,6.0000518 -12.08815,20.7728922 0.14366,0.125056 -23.235799,-6.141227 5.896281,21.709269 -18.747176,10.90941 20.855054,11.94553 -0.0181,-5.22914 c 2.61025,9.76213 10.29648,17.37018 20.11765,19.91299 l -4.9997,-0.0171 11.94604,20.855058 11.27683,-19.379178 21.484479,5.8353 -5.71851,-21.6364 20.29695,-11.81117 -19.65772,-11.25978 5.90042,-22.324732 -21.877219,5.941756 z" />
  <path
     id="path1"
     style="opacity:1;fill:#f2f2f2;stroke:#515151;stroke-width:6;stroke-linecap:square;stroke-linejoin:bevel;stroke-dasharray:none;stroke-opacity:0.994775;paint-order:stroke fill markers"
     d="m 36.454721,56.786382 c -7.631018,1.3e-4 -14.38205,4.86436 -16.683837,12.02097 -5.391609,1.46458 -9.098857,6.07163 -9.098822,11.30725 -1.8e-5,0.7893 0.08507,1.57659 0.253983,2.35001 -4.9310616,3.1044 -7.9259606,8.54378 -7.9260416,14.39538 -9.2e-5,9.379308 7.5586096,16.982758 16.8827336,16.982698 3.261341,-3e-5 6.452866,-0.95026 9.18881,-2.73586 2.208042,1.79035 4.657374,4.33967 7.38339,4.33967 3.232743,5e-5 6.555577,-2.94012 8.941344,-5.38315 2.92637,5.50345 7.70455,8.78045 12.80302,8.78063 4.84771,1.2e-4 9.42129,-2.96383 12.38168,-8.02412 1.50496,0.36533 3.04954,0.55003 4.59986,0.55003 10.57949,2e-5 19.15591,-8.41626 19.15597,-18.798338 -6e-5,-7.21409 -4.20705,-13.79181 -10.82709,-16.92843 0.0388,-0.43317 0.0584,-0.86834 0.0584,-1.30377 1.3e-4,-7.06742 -5.00662,-12.79677 -11.18283,-12.79682 -1.00911,1.2e-4 -2.01355,0.15652 -2.98599,0.46495 -2.17656,-2.48853 -4.98143,-3.8621 -7.8865,-3.86213 -4.04893,5e-5 -8.85587,1.0757 -11.04762,5.47892 -3.15318,-5.22233 -7.835604,-6.838 -14.010518,-6.83789 z" />
  <path
     style="opacity:1;fill:#fffeb4;fill-opacity:1;stroke:#515151;stroke-width:0;stroke-linecap:square;stroke-linejoin:miter;stroke-dasharray:none;stroke-opacity:0.994775;paint-order:stroke fill markers"
     d="m 81.198951,19.27813 4.54393,8.413025 1.39467,2.609389 19.120509,-5.848627 -5.12879,17.095988 -0.8548,2.924312 16.64609,8.952895 -16.961019,11.47231 4.408969,16.91603 -9.312819,-2.1145 0.49489,-3.01429 4.31898,0.94477 -4.31898,-14.53159 14.756529,-9.40279 -13.901729,-7.783173 6.568459,-17.095988 -15.386389,4.813871 -1.84457,0.719831 -7.28829,-14.306643 z"
     id="path19" />
  <path
     style="opacity:1;fill:#dadad9;fill-opacity:1;stroke:#515151;stroke-width:0;stroke-linecap:square;stroke-linejoin:miter;stroke-dasharray:none;stroke-opacity:0.994775;paint-order:stroke fill markers"
     d="m 5.3917394,101.87874 2.24947,3.95907 c 0,0 1.147136,2.74139 8.9978876,4.76888 7.850751,2.02749 12.533421,-1.67685 12.533421,-1.67685 0,0 4.061455,3.72281 7.738184,3.86457 3.676729,0.14177 8.971534,-4.97706 8.971534,-4.97706 4.023455,4.33979 8.008215,8.31875 12.287035,8.6696 4.01045,0.32884 8.38923,-2.177 11.89092,-8.31423 0,0 8.74114,1.66084 13.69412,-1.45244 2.66103,-1.67263 5.46137,-4.58851 7.24769,-8.224368 1.53856,-3.13156 2.25918,-7.15859 2.25918,-7.15859 l -0.49994,-0.16608 c 0,0 -5.12942,10.897998 -11.9672,13.586818 -6.83779,2.68881 -11.96719,0.62985 -11.96719,0.62985 0,0 -6.35272,8.32031 -10.85205,7.4946 -4.49933,-0.82571 -11.773697,-8.5374 -12.219815,-9.08335 0,0 -4.048342,5.57708 -8.563433,5.70329 -4.515091,0.12621 -7.865433,-3.93459 -7.865433,-3.93459 -3.893828,2.23243 -8.495704,3.64872 -12.186293,2.39404 -8.6465416,-2.93955 -11.7480876,-6.08317 -11.7480876,-6.08317 z"
     id="path20" />
</svg>
